<svg xmlns="http://www.w3.org/2000/svg" width="432" height="432" viewBox="0 0 432 432" fill="none"><rect width="432" height="432" rx="80" fill="#295b72"/><path d="M252.139 169.418c11.914 3.134 18.871 15.304 16.16 25.608l-36.176 137.505c-1.412 5.364-4.377 10.434-10.207 12.848-5.199 2.153-10.963 1.4-16.085.053L151.66 331.18l-.237.902a8 8 0 0 1-15.473-4.071l.366-1.392c-8.357-4.109-14.359-12.716-11.81-22.402l36.176-137.504c1.575-5.987 5.23-10.695 10.53-13.244 5.105-2.455 10.845-2.489 16.139-1.097zm56.33-74.471a8 8 0 0 1 5.702 9.772L272.312 263.82a8 8 0 0 1-15.473-4.071l41.858-159.101a8 8 0 0 1 9.772-5.701" fill="#f2f2e6"/><path d="m203.846 176.652-1.749 3.598-26.336 54.161-19.786 73.501-1.039 3.863-7.725-2.08 1.039-3.862 19.802-73.553 5.968-59.678.398-3.98 7.96.796-.398 3.98-3.768 37.677 16.69-34.324 1.75-3.597z" fill="#295b72"/><ellipse cx="219.891" cy="336.208" rx="17.865" ry="17.866" transform="rotate(14.74 219.891 336.208)" fill="#295b72"/><path d="M222.735 321.98c-.788-.687-1.798-.989-2.761-.98-.961.011-1.961.334-2.741 1.019-.802.704-1.318 1.747-1.318 3.041 0 .606-.38 1.243-1.031 1.643-.646.397-1.347.431-1.861.12l-.033-.02c-1.104-.615-2.229-.689-3.216-.314-.963.367-1.7 1.117-2.155 1.985-.894 1.712-.811 4.232 1.263 5.68l.061.04c.472.285.811.941.813 1.769 0 .826-.342 1.483-.813 1.768l-.015.011c-1.07.67-1.685 1.653-1.869 2.727-.178 1.045.06 2.096.541 2.954.481.857 1.24 1.592 2.196 1.958.98.376 2.104.334 3.194-.273l.033-.02c.57-.345 1.245-.276 1.86.163.637.45 1.032 1.181 1.032 1.849 0 1.283.526 2.303 1.345 2.977.787.647 1.789.931 2.734.923s1.94-.306 2.72-.954c.808-.668 1.343-1.677 1.343-2.946 0-.702.397-1.434 1.018-1.875.597-.425 1.271-.5 1.873-.137l.034.018c1.115.623 2.259.659 3.251.262.963-.388 1.719-1.15 2.19-2.022.469-.871.701-1.934.51-2.974-.197-1.067-.826-2.034-1.917-2.649-.465-.289-.801-.943-.801-1.769 0-.831.342-1.489.813-1.774l.015-.011c1.071-.672 1.686-1.654 1.87-2.727.179-1.045-.061-2.096-.542-2.954-.48-.857-1.241-1.592-2.194-1.959-.981-.375-2.106-.333-3.195.274l-.034.02c-.486.293-1.188.268-1.849-.135-.663-.403-1.04-1.037-1.042-1.628 0-1.314-.507-2.371-1.322-3.08M215.171 336c0-1.326.509-2.598 1.414-3.535A4.75 4.75 0 0 1 220 331c1.28 0 2.508.527 3.414 1.465a5.1 5.1 0 0 1 1.414 3.535 5.1 5.1 0 0 1-1.414 3.536A4.75 4.75 0 0 1 220 341a4.75 4.75 0 0 1-3.415-1.464 5.1 5.1 0 0 1-1.414-3.536" fill="#f2f2e6"/></svg>