<svg width="26" height="28" viewBox="0 0 26 28" fill="none" xmlns="http://www.w3.org/2000/svg">
<g clip-path="url(#clip0_2857_257)">
<path d="M18.3077 11.8H7.53847V14.0667H18.3077V11.8ZM20.4615 3.8667H19.3846V1.60004H17.2308V3.8667H8.61539V1.60004H6.46154V3.8667H5.38462C4.18924 3.8667 3.24154 4.8867 3.24154 6.13337L3.23077 22C3.23077 23.2467 4.18924 24.2667 5.38462 24.2667H20.4615C21.6462 24.2667 22.6154 23.2467 22.6154 22V6.13337C22.6154 4.8867 21.6462 3.8667 20.4615 3.8667ZM20.4615 22H5.38462V9.53337H20.4615V22ZM15.0769 16.3334H7.53847V18.6H15.0769V16.3334Z" fill="black"/>
</g>
<defs>
<clipPath id="clip0_2857_257">
<rect width="25.8462" height="27.2" fill="white" transform="translate(0 0.466675)"/>
</clipPath>
</defs>
</svg>
