<svg width="26" height="28" viewBox="0 0 26 28" fill="none" xmlns="http://www.w3.org/2000/svg">
<g clip-path="url(#clip0_2857_257)">
<path d="M18.2913 11.8H7.52695V14.0667H18.2913V11.8ZM20.4442 3.8667H19.3678V1.60004H17.2149V3.8667H8.60338V1.60004H6.45051V3.8667H5.37407C4.17922 3.8667 3.23196 4.8867 3.23196 6.13337L3.22119 22C3.22119 23.2467 4.17922 24.2667 5.37407 24.2667H20.4442C21.6283 24.2667 22.5971 23.2467 22.5971 22V6.13337C22.5971 4.8867 21.6283 3.8667 20.4442 3.8667ZM20.4442 22H5.37407V9.53337H20.4442V22ZM15.062 16.3334H7.52695V18.6H15.062V16.3334Z" fill="#BACB2C"/>
</g>
<defs>
<clipPath id="clip0_2857_257">
<rect width="25.8345" height="27.2" fill="white" transform="translate(-0.00811768 0.466675)"/>
</clipPath>
</defs>
</svg>
