<svg width="26" height="28" viewBox="0 0 26 28" fill="none" xmlns="http://www.w3.org/2000/svg">
<g clip-path="url(#clip0_3019_2450)">
<path d="M18.3077 11.3333H7.53847V13.6H18.3077V11.3333ZM20.4615 3.39997H19.3846V1.1333H17.2308V3.39997H8.61539V1.1333H6.46154V3.39997H5.38462C4.18924 3.39997 3.24154 4.41997 3.24154 5.66663L3.23077 21.5333C3.23077 22.78 4.18924 23.8 5.38462 23.8H20.4615C21.6462 23.8 22.6154 22.78 22.6154 21.5333V5.66663C22.6154 4.41997 21.6462 3.39997 20.4615 3.39997ZM20.4615 21.5333H5.38462V9.06663H20.4615V21.5333ZM15.0769 15.8666H7.53847V18.1333H15.0769V15.8666Z" fill="#EDEDE0"/>
</g>
<defs>
<clipPath id="clip0_3019_2450">
<rect width="25.8462" height="27.2" fill="white"/>
</clipPath>
</defs>
</svg>
