<svg width="26" height="28" viewBox="0 0 26 28" fill="none" xmlns="http://www.w3.org/2000/svg">
<g clip-path="url(#clip0_2834_1799)">
<path d="M18.3077 11.8H7.53847V14.0666H18.3077V11.8ZM20.4615 3.86664H19.3846V1.59998H17.2308V3.86664H8.61539V1.59998H6.46154V3.86664H5.38462C4.18924 3.86664 3.24154 4.88664 3.24154 6.13331L3.23077 22C3.23077 23.2466 4.18924 24.2666 5.38462 24.2666H20.4615C21.6462 24.2666 22.6154 23.2466 22.6154 22V6.13331C22.6154 4.88664 21.6462 3.86664 20.4615 3.86664ZM20.4615 22H5.38462V9.53331H20.4615V22ZM15.0769 16.3333H7.53847V18.6H15.0769V16.3333Z" fill="#151A00"/>
</g>
<defs>
<clipPath id="clip0_2834_1799">
<rect width="25.8462" height="27.2" fill="white" transform="translate(0 0.466675)"/>
</clipPath>
</defs>
</svg>
