<svg width="26" height="28" viewBox="0 0 26 28" fill="none" xmlns="http://www.w3.org/2000/svg">
<g clip-path="url(#clip0_3240_525)">
<path d="M18.2996 11.3333H7.53525V13.6H18.2996V11.3333ZM20.4525 3.39997H19.3761V1.1333H17.2232V3.39997H8.61168V1.1333H6.45881V3.39997H5.38237C4.18752 3.39997 3.24026 4.41997 3.24026 5.66663L3.22949 21.5333C3.22949 22.78 4.18752 23.8 5.38237 23.8H20.4525C21.6366 23.8 22.6054 22.78 22.6054 21.5333V5.66663C22.6054 4.41997 21.6366 3.39997 20.4525 3.39997ZM20.4525 21.5333H5.38237V9.06663H20.4525V21.5333ZM15.0703 15.8666H7.53525V18.1333H15.0703V15.8666Z" fill="#295B72"/>
</g>
<defs>
<clipPath id="clip0_3240_525">
<rect width="25.8345" height="27.2" fill="white"/>
</clipPath>
</defs>
</svg>
