<svg width="234" height="234" viewBox="0 0 234 234" fill="none" xmlns="http://www.w3.org/2000/svg">
<g opacity="0.15">
<path d="M106.674 103.159C104.176 101.864 102.141 99.875 100.893 97.3775L100.569 96.73C99.32 94.2788 95.8513 94.2788 94.6025 96.73L94.2788 97.3775C92.9838 99.875 90.995 101.91 88.4975 103.159L87.85 103.483C85.3988 104.731 85.3988 108.2 87.85 109.449L88.4975 109.773C90.995 111.068 93.03 113.056 94.2788 115.554L94.6025 116.201C95.8513 118.653 99.32 118.653 100.569 116.201L100.893 115.554C102.188 113.056 104.176 111.021 106.674 109.773L107.321 109.449C109.773 108.2 109.773 104.731 107.321 103.483L106.674 103.159Z" fill="#0E222C"/>
<path d="M122.815 119.023L121.705 119.578C117.311 121.798 117.311 128.088 121.705 130.354L122.815 130.909C127.301 133.221 130.955 136.875 133.267 141.361L133.823 142.471C136.043 146.865 142.333 146.865 144.599 142.471L145.154 141.361C147.466 136.875 151.12 133.221 155.606 130.909L156.716 130.354C161.11 128.134 161.11 121.844 156.716 119.578L155.606 119.023C151.12 116.71 147.466 113.056 145.154 108.57L144.599 107.46C142.379 103.066 136.089 103.066 133.823 107.46L133.267 108.57C130.955 113.056 127.301 116.71 122.815 119.023Z" fill="#0E222C"/>
<path d="M195.058 58.1575L193.577 57.4175C188.952 55.0588 185.253 51.3588 182.894 46.7338L182.154 45.2538C179.61 40.2588 174.523 37.16 168.926 37.16C163.33 37.16 158.242 40.2588 155.652 45.2538L154.912 46.7338C152.554 51.3588 148.854 55.0588 144.229 57.4175L142.749 58.1575C137.754 60.7013 134.655 65.7888 134.655 71.4313C134.655 77.0738 137.754 82.115 142.749 84.705L144.229 85.445C148.854 87.8038 152.554 91.5038 154.912 96.1288L155.652 97.6088C158.196 102.604 163.284 105.703 168.926 105.703C174.569 105.703 179.61 102.604 182.2 97.6088L182.94 96.1288C185.299 91.5038 188.999 87.8038 193.624 85.445L195.104 84.705C200.099 82.1613 203.198 77.0738 203.198 71.4775C203.198 65.8813 200.099 60.7938 195.104 58.2038L195.058 58.1575ZM188.768 72.31L187.288 73.05C180.026 76.75 174.245 82.5313 170.545 89.7925L169.805 91.2725C169.805 91.2725 169.528 91.8275 168.926 91.8275C168.325 91.8275 168.094 91.4113 168.048 91.2725L167.308 89.7925C163.608 82.5313 157.826 76.75 150.565 73.05L149.085 72.31C149.085 72.31 148.53 72.0325 148.53 71.4313C148.53 70.83 148.946 70.5988 149.085 70.5525L150.565 69.8125C157.826 66.1125 163.608 60.3313 167.308 53.07L168.048 51.59C168.048 51.59 168.325 51.035 168.926 51.035C169.528 51.035 169.759 51.405 169.805 51.59L170.545 53.07C174.245 60.3313 180.026 66.1125 187.288 69.8125L188.768 70.5525C188.768 70.5525 189.323 70.83 189.323 71.4313C189.323 72.0325 188.906 72.2638 188.768 72.31Z" fill="#0E222C"/>
<path d="M190.062 99.5513C186.224 99.5513 183.125 102.65 183.125 106.489C183.125 139.65 156.161 166.614 123 166.614C89.8387 166.614 62.875 139.65 62.875 106.489C62.875 73.3275 89.8387 46.3638 123 46.3638C128.643 46.3638 134.239 47.15 139.604 48.6763C143.304 49.74 147.143 47.6125 148.16 43.9125C149.224 40.2125 147.096 36.3738 143.396 35.3563C136.782 33.46 129.938 32.4888 123 32.4888C82.2075 32.4888 49 65.6963 49 106.489C49 125.914 56.585 143.535 68.8875 156.763L60.9325 180.581C60.7012 181.275 60.5625 182.015 60.5625 182.755C60.5625 195.058 82.8088 212.818 123 212.818C163.191 212.818 185.438 195.058 185.438 182.755C185.438 182.015 185.299 181.275 185.067 180.581L177.113 156.763C189.415 143.535 197 125.914 197 106.489C197 102.65 193.901 99.5513 190.062 99.5513ZM74.7612 182.986L80.1725 166.706C85.5837 170.545 91.5037 173.69 97.84 175.956L92.6138 194.271C82.0225 190.571 76.3337 185.53 74.7612 182.94V182.986Z" fill="#0E222C"/>
</g>
<path d="M94.6738 91.1588C92.1763 89.8638 90.1413 87.875 88.8925 85.3775L88.5688 84.73C87.32 82.2788 83.8513 82.2788 82.6025 84.73L82.2788 85.3775C80.9838 87.875 78.995 89.91 76.4975 91.1588L75.85 91.4825C73.3988 92.7313 73.3988 96.2 75.85 97.4488L76.4975 97.7725C78.995 99.0675 81.03 101.056 82.2788 103.554L82.6025 104.201C83.8513 106.653 87.32 106.653 88.5688 104.201L88.8925 103.554C90.1875 101.056 92.1763 99.0213 94.6738 97.7725L95.3213 97.4488C97.7725 96.2 97.7725 92.7313 95.3213 91.4825L94.6738 91.1588Z" fill="#0E222C"/>
<path d="M110.815 107.023L109.705 107.578C105.311 109.798 105.311 116.088 109.705 118.354L110.815 118.909C115.301 121.221 118.955 124.875 121.267 129.361L121.823 130.471C124.043 134.865 130.333 134.865 132.599 130.471L133.154 129.361C135.466 124.875 139.12 121.221 143.606 118.909L144.716 118.354C149.11 116.134 149.11 109.844 144.716 107.578L143.606 107.023C139.12 104.71 135.466 101.056 133.154 96.57L132.599 95.46C130.379 91.0663 124.089 91.0663 121.823 95.46L121.267 96.57C118.955 101.056 115.301 104.71 110.815 107.023Z" fill="#0E222C"/>
<path d="M183.058 46.1575L181.577 45.4175C176.952 43.0588 173.253 39.3588 170.894 34.7338L170.154 33.2538C167.61 28.2588 162.523 25.16 156.926 25.16C151.33 25.16 146.242 28.2588 143.652 33.2538L142.912 34.7338C140.554 39.3588 136.854 43.0588 132.229 45.4175L130.749 46.1575C125.754 48.7013 122.655 53.7888 122.655 59.4313C122.655 65.0738 125.754 70.115 130.749 72.705L132.229 73.445C136.854 75.8038 140.554 79.5038 142.912 84.1288L143.652 85.6088C146.196 90.6038 151.284 93.7025 156.926 93.7025C162.569 93.7025 167.61 90.6038 170.2 85.6088L170.94 84.1288C173.299 79.5038 176.999 75.8038 181.624 73.445L183.104 72.705C188.099 70.1613 191.198 65.0738 191.198 59.4775C191.198 53.8813 188.099 48.7938 183.104 46.2038L183.058 46.1575ZM176.768 60.31L175.288 61.05C168.026 64.75 162.245 70.5313 158.545 77.7925L157.805 79.2725C157.805 79.2725 157.528 79.8275 156.926 79.8275C156.325 79.8275 156.094 79.4113 156.048 79.2725L155.308 77.7925C151.608 70.5313 145.826 64.75 138.565 61.05L137.085 60.31C137.085 60.31 136.53 60.0325 136.53 59.4313C136.53 58.83 136.946 58.5988 137.085 58.5525L138.565 57.8125C145.826 54.1125 151.608 48.3313 155.308 41.07L156.048 39.59C156.048 39.59 156.325 39.035 156.926 39.035C157.528 39.035 157.759 39.405 157.805 39.59L158.545 41.07C162.245 48.3313 168.026 54.1125 175.288 57.8125L176.768 58.5525C176.768 58.5525 177.323 58.83 177.323 59.4313C177.323 60.0325 176.906 60.2638 176.768 60.31Z" fill="#0E222C"/>
<path d="M178.062 87.5513C174.224 87.5513 171.125 90.65 171.125 94.4888C171.125 127.65 144.161 154.614 111 154.614C77.8387 154.614 50.875 127.65 50.875 94.4888C50.875 61.3275 77.8387 34.3638 111 34.3638C116.643 34.3638 122.239 35.15 127.604 36.6763C131.304 37.74 135.143 35.6125 136.16 31.9125C137.224 28.2125 135.096 24.3738 131.396 23.3563C124.782 21.46 117.938 20.4888 111 20.4888C70.2075 20.4888 37 53.6963 37 94.4888C37 113.914 44.585 131.535 56.8875 144.763L48.9325 168.581C48.7012 169.275 48.5625 170.015 48.5625 170.755C48.5625 183.058 70.8088 200.818 111 200.818C151.191 200.818 173.438 183.058 173.438 170.755C173.438 170.015 173.299 169.275 173.067 168.581L165.113 144.763C177.415 131.535 185 113.914 185 94.4888C185 90.65 181.901 87.5513 178.062 87.5513ZM62.7612 170.986L68.1725 154.706C73.5837 158.545 79.5037 161.69 85.84 163.956L80.6138 182.271C70.0225 178.571 64.3337 173.53 62.7612 170.94V170.986Z" fill="#0E222C"/>
</svg>
