<svg width="48" height="48" viewBox="0 0 48 48" fill="none" xmlns="http://www.w3.org/2000/svg">
<path d="M29.2899 11.6601L29.0499 11.7801C28.0799 12.2801 27.2899 13.0701 26.7899 14.0401L26.6699 14.2801C26.1899 15.2301 24.8299 15.2301 24.3399 14.2801L24.2199 14.0401C23.7199 13.0701 22.9299 12.2801 21.9599 11.7801L21.7199 11.6601C20.7699 11.1801 20.7699 9.82006 21.7199 9.33006L21.9599 9.21006C22.9299 8.71006 23.7199 7.92006 24.2199 6.95006L24.3399 6.71006C24.8199 5.76006 26.1799 5.76006 26.6699 6.71006L26.7899 6.95006C27.2899 7.92006 28.0799 8.71006 29.0499 9.21006L29.2899 9.33006C30.2399 9.81006 30.2399 11.1701 29.2899 11.6601Z" fill="#D1DC5A"/>
<path d="M27.3999 21.0301C26.4199 20.5301 26.4199 19.1401 27.3999 18.6401L28.8599 17.8901C30.1599 17.2201 31.2199 16.1601 31.8899 14.8601L32.6399 13.4001C33.1399 12.4201 34.5299 12.4201 35.0299 13.4001L35.7799 14.8601C36.4499 16.1601 37.5099 17.2201 38.8099 17.8901L40.2699 18.6401C41.2499 19.1401 41.2499 20.5301 40.2699 21.0301L38.8099 21.7801C37.5099 22.4501 36.4499 23.5101 35.7799 24.8101L35.0299 26.2701C34.5299 27.2501 33.1399 27.2501 32.6399 26.2701L31.8899 24.8101C31.2199 23.5101 30.1599 22.4501 28.8599 21.7801L27.3999 21.0301Z" fill="#D1DC5A"/>
<path d="M8.63988 27.0101L10.1199 26.2501C11.9099 25.3401 13.3399 23.9101 14.2499 22.1201L15.0099 20.6401C15.6799 19.3201 17.0199 18.5001 18.4999 18.5001C19.9799 18.5001 21.3199 19.3201 21.9899 20.6401L22.7499 22.1201C23.6599 23.9101 25.0899 25.3401 26.8799 26.2501L28.3599 27.0101C29.6799 27.6801 30.4999 29.0201 30.4999 30.5001C30.4999 31.9801 29.6799 33.3201 28.3599 33.9901L26.8799 34.7501C25.0899 35.6601 23.6599 37.0901 22.7499 38.8801L21.9899 40.3601C21.3199 41.6801 19.9799 42.5001 18.4999 42.5001C17.0199 42.5001 15.6799 41.6801 15.0099 40.3601L14.2499 38.8801C13.3399 37.0901 11.9099 35.6601 10.1199 34.7501L8.63988 33.9901C7.31988 33.3201 6.49988 31.9801 6.49988 30.5001C6.49988 29.0201 7.31988 27.6801 8.63988 27.0101ZM9.99988 31.3201L11.4799 32.0801C13.8399 33.2801 15.7199 35.1601 16.9199 37.5201L17.6799 39.0001C17.9099 39.4501 18.3299 39.5001 18.4999 39.5001C18.6699 39.5001 19.0899 39.4501 19.3199 39.0001L20.0799 37.5201C21.2799 35.1601 23.1599 33.2801 25.5199 32.0801L26.9999 31.3201C27.4499 31.0901 27.4999 30.6701 27.4999 30.5001C27.4999 30.3301 27.4499 29.9101 26.9999 29.6801L25.5199 28.9201C23.1599 27.7201 21.2799 25.8401 20.0799 23.4801L19.3199 22.0001C19.0899 21.5501 18.6699 21.5001 18.4999 21.5001C18.3299 21.5001 17.9099 21.5501 17.6799 22.0001L16.9199 23.4801C15.7199 25.8401 13.8399 27.7201 11.4799 28.9201L9.99988 29.6801C9.54988 29.9101 9.49988 30.3301 9.49988 30.5001C9.49988 30.6701 9.54988 31.0901 9.99988 31.3201Z" fill="#D1DC5A"/>
</svg>
