<svg width="9" height="12" viewBox="0 0 9 12" fill="none" xmlns="http://www.w3.org/2000/svg">
<path d="M2 0.549805C2.25513 0.549805 2.61142 0.773306 2.94434 1.32031C3.2604 1.83973 3.4502 2.49171 3.4502 3C3.4502 3.61297 3.17592 4.41591 2.75977 4.94727C2.65617 5.07953 2.6135 5.2442 2.62988 5.40234L3.10352 9.9707C3.19253 10.829 2.59935 11.4502 2 11.4502C1.40065 11.4502 0.807475 10.829 0.896484 9.9707L1.37012 5.40234C1.3865 5.2442 1.34382 5.07953 1.24023 4.94727C0.824079 4.41591 0.549805 3.61297 0.549805 3C0.549805 2.49171 0.739599 1.83973 1.05566 1.32031C1.38858 0.773306 1.74487 0.549805 2 0.549805Z" stroke="#00324A" stroke-width="1.1"/>
<path fill-rule="evenodd" clip-rule="evenodd" d="M5 3.80952C5 2.10376 6.17716 0.659835 7.8 0.174401C8.17882 0.0610872 8.58192 0 9 0V7.2381C9 7.44849 8.82091 7.61905 8.6 7.61905H8.39992V11.0476C8.39992 11.5736 7.95221 12 7.39992 12H6.51992C5.96764 12 5.51992 11.5736 5.51992 11.0476V7.61905H5.23669C5.10597 7.61905 5 7.51813 5 7.39363V3.80952ZM6.71992 7.61905V10.8571H7.19992V7.61905H6.71992ZM6.2 3.80952C6.2 2.74575 6.85402 1.82746 7.8 1.39948V6.47619H6.2V3.80952Z" fill="#00324A"/>
</svg>
