<svg width="23" height="22" viewBox="0 0 23 22" fill="none" xmlns="http://www.w3.org/2000/svg">
<path d="M20.1937 13.7679C20.0013 12.4286 19.7127 10.4643 19.4241 9.03571C19.3279 8.41071 19.1355 7.69643 18.8469 7.07143C18.0772 4.21429 15.1911 2.25 12.0164 2.25C8.74544 2.25 5.85931 4.21429 5.08968 6.98214C4.89727 7.69643 4.70486 8.41071 4.51246 9.03571C4.22384 10.4643 3.93523 12.4286 3.74282 13.7679C3.55042 15.0179 4.51246 16.1786 5.85931 16.4464C6.82136 16.625 8.07201 16.7143 9.32266 16.8929V17.25C9.32266 18.5893 10.4771 19.75 12.0164 19.75C13.4594 19.75 14.7101 18.6786 14.7101 17.25V16.8929C15.9607 16.8036 17.1152 16.625 18.1734 16.4464C19.4241 16.1786 20.3861 15.0179 20.1937 13.7679ZM13.1708 17.25C13.1708 17.875 12.5936 18.3214 12.0164 18.3214C11.4392 18.3214 10.7657 17.7857 10.7657 17.25V16.9821C11.1505 16.9821 11.6316 16.9821 12.0164 16.9821C12.4012 16.9821 12.786 16.9821 13.1708 16.9821V17.25Z" fill="white"/>
</svg>
