<svg width="23" height="22" viewBox="0 0 23 22" fill="none" xmlns="http://www.w3.org/2000/svg">
<path d="M19.5145 13.7679C19.3221 12.4286 19.0335 10.4643 18.7449 9.03571C18.6486 8.41071 18.4562 7.69643 18.1676 7.07143C17.398 4.21429 14.5119 2.25 11.3371 2.25C8.06619 2.25 5.18007 4.21429 4.41044 6.98214C4.21803 7.69643 4.02562 8.41071 3.83321 9.03571C3.5446 10.4643 3.25599 12.4286 3.06358 13.7679C2.87117 15.0179 3.83321 16.1786 5.18007 16.4464C6.14211 16.625 7.39276 16.7143 8.64342 16.8929V17.25C8.64342 18.5893 9.79787 19.75 11.3371 19.75C12.7802 19.75 14.0308 18.6786 14.0308 17.25V16.8929C15.2815 16.8036 16.436 16.625 17.4942 16.4464C18.7449 16.1786 19.7069 15.0179 19.5145 13.7679ZM12.4916 17.25C12.4916 17.875 11.9144 18.3214 11.3371 18.3214C10.7599 18.3214 10.0865 17.7857 10.0865 17.25V16.9821C10.4713 16.9821 10.9523 16.9821 11.3371 16.9821C11.7219 16.9821 12.1068 16.9821 12.4916 16.9821V17.25Z" fill="#322C2C"/>
</svg>
