<svg width="23" height="23" viewBox="0 0 23 23" fill="none" xmlns="http://www.w3.org/2000/svg">
<path d="M11.4971 0C17.8484 0 22.9971 5.14867 22.9971 11.5C22.9971 17.8513 17.8484 23 11.4971 23C5.14585 22.9999 -0.00291732 17.8512 -0.00292969 11.5C-0.00292969 5.14874 5.14584 0.000114938 11.4971 0ZM8.58301 6.17285C8.26634 6.00818 7.89247 6.2244 7.87695 6.58105C7.8031 8.27909 7.70367 12.3639 8.37793 13.5322C9.05237 14.7004 12.641 16.6574 14.1484 17.4424C14.4651 17.6068 14.838 17.3908 14.8535 17.0342C14.9274 15.3363 15.0277 11.2516 14.3535 10.083C13.6791 8.91484 10.0904 6.95786 8.58301 6.17285Z" fill="#DC1217"/>
</svg>
