<svg xmlns="http://www.w3.org/2000/svg" version="1.2" viewBox="0 0 200 303" width="200" height="303"><style>@keyframes girar{0%{transform:rotate(0deg)}to{transform:rotate(360deg)}}.s0{fill:#f2f2e6}</style><g class="maleta"><path class="s0" d="M135.14 106.42c11.91 3.13 18.87 15.3 16.16 25.61l-34.27 130.25a17.74 17.74 0 0 0-9.59-6.35c-9.56-2.51-19.31 3.18-21.83 12.73a17.83 17.83 0 0 0 1.75 13.38l-52.7-13.86-.24.9c-1.12 4.27-5.5 6.83-9.77 5.7-4.27-1.12-6.82-5.5-5.7-9.77l.37-1.39c-8.36-4.11-14.36-12.72-11.81-22.4l36.17-137.51c1.58-5.98 5.23-10.69 10.53-13.24 5.11-2.46 10.85-2.49 16.14-1.1zm56.33-74.47c4.27 1.12 6.83 5.5 5.7 9.77l-41.86 159.1c-1.12 4.28-5.5 6.83-9.77 5.71a8.01 8.01 0 0 1-5.7-9.78l41.86-159.1c1.12-4.27 5.5-6.82 9.77-5.7M79.65 110.16l-1.75 3.6-16.69 34.32 3.77-37.68.4-3.98-7.96-.79-.4 3.98-5.97 59.67-19.8 73.56-1.04 3.86 7.73 2.08 1.04-3.86 19.78-73.5 26.34-54.17 1.75-3.59z"/></g><path class="s0" d="M105.73 258.98c-.78-.69-1.79-.99-2.76-.98-.96.01-1.96.33-2.74 1.02-.8.7-1.31 1.75-1.31 3.04 0 .61-.39 1.24-1.04 1.64-.64.4-1.34.43-1.86.12q-.01-.01-.03-.02c-1.1-.61-2.23-.69-3.22-.31-.96.37-1.7 1.12-2.15 1.98-.9 1.72-.81 4.24 1.26 5.68l.06.04c.48.29.81.94.82 1.77 0 .83-.35 1.49-.82 1.77l-.01.01c-1.07.67-1.69 1.65-1.87 2.73-.18 1.04.06 2.09.54 2.95s1.24 1.59 2.2 1.96c.98.38 2.1.33 3.19-.27q.02-.01.03-.02c.57-.35 1.25-.28 1.86.16.64.45 1.04 1.18 1.04 1.85 0 1.28.52 2.3 1.34 2.98.79.64 1.79.93 2.73.92.95-.01 1.94-.31 2.72-.95.81-.67 1.35-1.68 1.35-2.95 0-.7.39-1.43 1.01-1.87.6-.43 1.28-.5 1.88-.14q.01.01.03.02c1.12.62 2.26.65 3.25.26.97-.39 1.72-1.15 2.19-2.02s.7-1.94.51-2.98c-.19-1.07-.82-2.03-1.91-2.65-.47-.29-.81-.94-.81-1.77s.35-1.49.82-1.77l.01-.01c1.07-.67 1.69-1.66 1.87-2.73.18-1.04-.06-2.09-.54-2.95s-1.24-1.59-2.19-1.96c-.98-.38-2.11-.33-3.2.27q-.02.01-.03.02c-.49.3-1.19.27-1.85-.13s-1.04-1.04-1.04-1.63c0-1.31-.51-2.37-1.33-3.08M98.17 273c0-1.33.51-2.6 1.42-3.54.9-.93 2.13-1.46 3.41-1.46s2.51.53 3.41 1.46c.91.94 1.42 2.21 1.42 3.54s-.51 2.6-1.42 3.54c-.9.93-2.13 1.46-3.41 1.46s-2.51-.53-3.41-1.46a5.1 5.1 0 0 1-1.42-3.54" style="transform-origin:103px 273px;animation:girar 2s linear infinite"/></svg>