<svg width="21" height="21" viewBox="0 0 21 21" fill="none" xmlns="http://www.w3.org/2000/svg">
<path d="M1.96874 1.75C1.96874 1.38757 2.26255 1.09375 2.62499 1.09375C6.09249 1.09375 7.73508 2.8667 8.30376 4.32032C8.82847 4.11034 9.4709 3.92611 10.1576 3.85354C11.2312 3.7401 12.4817 3.89489 13.5349 4.73749C13.818 4.96391 13.8638 5.37688 13.6374 5.65989C13.411 5.9429 12.998 5.98879 12.715 5.76237C12.0183 5.20494 11.1541 5.06805 10.2955 5.15878C9.90691 5.19984 9.53337 5.28655 9.19974 5.3926C9.55184 5.69325 9.91085 6.05674 10.2253 6.47335C10.8612 7.31573 11.3623 8.44301 11.1473 9.73289C11.0877 10.0903 10.7496 10.3319 10.3921 10.2723C10.0346 10.2127 9.79307 9.87464 9.85266 9.51711C9.98767 8.70695 9.68676 7.93838 9.17777 7.26407C8.79899 6.7623 8.33147 6.35029 7.93298 6.06686C7.49218 6.50474 7.09416 7.12341 6.74399 7.8915C6.31047 8.8424 5.97279 9.97229 5.71628 11.1533C5.21997 13.4384 5.04294 15.8421 5.03181 17.3491C5.40469 17.4125 5.76958 17.5409 6.10915 17.7349L6.46071 17.9358C7.06596 18.2817 7.80899 18.2817 8.41425 17.9358L8.87205 17.6743C9.88075 17.0978 11.1191 17.0978 12.1279 17.6743L12.5857 17.9358C13.191 18.2817 13.934 18.2817 14.5392 17.9358L14.8908 17.7349C15.9699 17.1183 17.3048 17.1643 18.3388 17.8538L19.614 18.7038C19.9156 18.9049 19.9971 19.3123 19.796 19.6138C19.595 19.9154 19.1875 19.9969 18.886 19.7959L17.6108 18.9458C16.9904 18.5321 16.1894 18.5046 15.542 18.8745L15.1904 19.0754C14.1816 19.6519 12.9432 19.6519 11.9345 19.0754L11.4767 18.8138C10.8715 18.468 10.1285 18.468 9.52322 18.8138L9.06542 19.0754C8.05667 19.6519 6.81828 19.6519 5.80952 19.0754L5.45797 18.8745C4.81052 18.5046 4.0096 18.5321 3.38913 18.9458L2.114 19.7959C1.81244 19.9969 1.40498 19.9154 1.20394 19.6138C1.0029 19.3123 1.08439 18.9049 1.38595 18.7038L2.66109 17.8538C2.98935 17.6348 3.34793 17.4808 3.71901 17.3923C3.72696 15.8148 3.90903 13.2904 4.43369 10.8748C4.70218 9.63856 5.0645 8.4114 5.54974 7.34705C5.84077 6.70868 6.18444 6.11012 6.59258 5.60002C6.17715 5.53432 5.69923 5.49801 5.19441 5.52259C4.17158 5.5724 3.08197 5.86918 2.17011 6.62908C1.89168 6.8611 1.47787 6.82349 1.24584 6.54505C1.01381 6.26662 1.05143 5.85281 1.32986 5.62078C2.518 4.63067 3.90756 4.27121 5.13057 4.21165C5.74367 4.18178 6.32591 4.22652 6.8375 4.31005C6.28642 3.41249 5.06761 2.40625 2.62499 2.40625C2.26255 2.40625 1.96874 2.11243 1.96874 1.75Z" fill="white"/>
<path d="M16.0435 8.16305C15.7193 8.00097 15.3251 8.13237 15.1631 8.45654C15.0009 8.78073 15.1323 9.17492 15.4565 9.33697C16.0868 9.65215 16.5979 10.1632 16.913 10.7935C17.0751 11.1177 17.4693 11.2491 17.7935 11.087C17.9276 11.0199 18.0287 10.9132 18.0897 10.7881C18.4051 10.1603 18.915 9.65127 19.5435 9.33697C19.8677 9.17492 19.9991 8.78073 19.8369 8.45654C19.6749 8.13237 19.2807 8.00097 18.9565 8.16305C18.3942 8.44424 17.8994 8.83665 17.5 9.31247C17.1006 8.83665 16.6058 8.44424 16.0435 8.16305Z" fill="white"/>
<path d="M10.788 11.9566C10.9501 11.6324 11.3443 11.5009 11.6685 11.6631C12.2308 11.9442 12.7256 12.3367 13.125 12.8125C13.5244 12.3367 14.0192 11.9442 14.5815 11.6631C14.9057 11.5009 15.2999 11.6324 15.4619 11.9566C15.6241 12.2807 15.4927 12.6749 15.1685 12.837C14.54 13.1513 14.0301 13.6603 13.7147 14.2881C13.6537 14.4132 13.5526 14.52 13.4185 14.587C13.0943 14.7491 12.7001 14.6177 12.538 14.2935C12.2229 13.6632 11.7118 13.1522 11.0815 12.837C10.7573 12.6749 10.6259 12.2807 10.788 11.9566Z" fill="white"/>
<path d="M16.9185 13.8506C16.5943 13.6884 16.2001 13.8199 16.0381 14.1441C15.8759 14.4682 16.0073 14.8624 16.3315 15.0245C16.7725 15.245 17.1301 15.6025 17.3506 16.0435C17.5126 16.3677 17.9068 16.4991 18.231 16.337C18.365 16.27 18.4662 16.1632 18.5272 16.0382C18.7478 15.5997 19.1043 15.2441 19.5435 15.0245C19.8677 14.8624 19.9991 14.4682 19.8369 14.1441C19.6749 13.8199 19.2807 13.6884 18.9565 13.8506C18.5718 14.0429 18.2273 14.3016 17.9375 14.6119C17.6477 14.3016 17.3032 14.0429 16.9185 13.8506Z" fill="white"/>
</svg>
