<svg width="19" height="19" viewBox="0 0 19 19" fill="none" xmlns="http://www.w3.org/2000/svg">
<g clip-path="url(#clip0_2660_1200)">
<path d="M9.5 5.77778C10.5432 5.77778 11.3889 4.93209 11.3889 3.88889C11.3889 2.84568 10.5432 2 9.5 2C8.4568 2 7.61111 2.84568 7.61111 3.88889C7.61111 4.93209 8.4568 5.77778 9.5 5.77778Z" fill="white"/>
<path d="M18 13.3334V11.4445C15.8844 11.4445 14.0711 10.5378 12.7111 8.9134L11.4456 7.40229C11.0867 6.96785 10.5578 6.72229 10.0006 6.72229H9.00889C8.45167 6.72229 7.92278 6.96785 7.56389 7.40229L6.29833 8.9134C4.92889 10.5378 3.11556 11.4445 1 11.4445V13.3334C3.61611 13.3334 5.90167 12.2284 7.61111 10.264V12.389L3.94667 13.8528C3.31389 14.1078 2.88889 14.7312 2.88889 15.4206C2.88889 16.3556 3.64444 17.1112 4.57944 17.1112H6.66667V16.639C6.66667 15.3356 7.72444 14.2778 9.02778 14.2778H11.8611C12.1256 14.2778 12.3333 14.4856 12.3333 14.7501C12.3333 15.0145 12.1256 15.2223 11.8611 15.2223H9.02778C8.24389 15.2223 7.61111 15.8551 7.61111 16.639V17.1112H14.4206C15.3556 17.1112 16.1111 16.3556 16.1111 15.4206C16.1111 14.7312 15.6861 14.1078 15.0533 13.8528L11.3889 12.389V10.264C13.0983 12.2284 15.3839 13.3334 18 13.3334Z" fill="white"/>
</g>
<defs>
<clipPath id="clip0_2660_1200">
<rect width="19" height="19" fill="white"/>
</clipPath>
</defs>
</svg>
