<svg width="19" height="19" viewBox="0 0 19 19" fill="none" xmlns="http://www.w3.org/2000/svg">
<g clip-path="url(#clip0_2524_1713)">
<path d="M8.86858 2.01473C9.11019 1.43951 9.88983 1.43951 10.1314 2.01473L11.8885 6.19808C11.9886 6.43641 12.2036 6.59987 12.451 6.62588L16.7949 7.08239C17.3922 7.14516 17.6331 7.92132 17.1852 8.33956L13.9272 11.3815C13.7416 11.5548 13.6595 11.8193 13.7124 12.0737L14.6399 16.5392C14.7674 17.1533 14.1367 17.6329 13.6183 17.3162L9.84763 15.0129C9.74028 14.9473 9.62011 14.9145 9.50001 14.9145C9.37992 14.9145 9.25974 14.9473 9.15239 15.0129L5.38175 17.3162C4.86328 17.6329 4.23255 17.1533 4.36008 16.5392L5.28764 12.0737C5.34049 11.8193 5.25839 11.5548 5.07278 11.3815L1.81485 8.33956C1.36689 7.92132 1.60781 7.14516 2.2051 7.08239L6.54897 6.62588C6.79645 6.59987 7.01138 6.43641 7.11149 6.19808L8.86858 2.01473Z" fill="white"/>
</g>
<defs>
<clipPath id="clip0_2524_1713">
<rect width="19" height="19" fill="white"/>
</clipPath>
</defs>
</svg>
