<svg width="20" height="20" viewBox="0 0 20 20" fill="none" xmlns="http://www.w3.org/2000/svg">
<path d="M18.3333 17.0833C18.3333 17.0833 15.5555 17.9167 9.99999 17.9167C4.44443 17.9167 1.66666 17.0833 1.66666 17.0833M2.78091 6.75793C8.52332 7.86524 16.5221 7.6578 17.6006 3.63311M9.35546 7.86538C9.35546 7.86538 9.32656 9.5831 9.51335 10.4959M12.0369 10.7404C6.8006 11.4698 5.75495 10.5425 6.54272 16.4998L4.87572 16.4997M11.5836 7.59927C11.8205 11.545 13.3227 14.1345 15.7086 16.4992H14.0419M12.0833 3.33332C12.0833 4.25379 11.3371 5 10.4166 5.00002C9.49615 5.00004 8.74997 4.25386 8.74999 3.33339C8.75001 2.41291 9.49622 1.66671 10.4167 1.66669C11.3372 1.66667 12.0833 2.41284 12.0833 3.33332Z" stroke="white" stroke-width="1.5" stroke-linecap="round" stroke-linejoin="round"/>
</svg>
