<svg width="19" height="19" viewBox="0 0 19 19" fill="none" xmlns="http://www.w3.org/2000/svg">
<path d="M12.25 7.35669C12.25 6.42062 13.4081 6.1725 13.7153 7.04836C14.4585 9.16702 15 11.0623 15 12.087C15 15.3527 12.5376 18 9.5 18C6.46243 18 4 15.3527 4 12.087C4 10.9861 4.62504 8.88032 5.45371 6.57226C6.52717 3.58242 7.0639 2.0875 7.72644 2.00698C7.93844 1.98121 8.16972 2.02754 8.35887 2.13365C8.95 2.46526 8.95 4.09574 8.95 7.35669C8.95 8.33639 9.68873 9.13059 10.6 9.13059C11.5113 9.13059 12.25 8.33639 12.25 7.35669Z" stroke="#00324A" stroke-width="2"/>
<path d="M8.25 18L7.95921 17.3021C7.36963 15.8871 7.61524 14.2617 8.59659 13.0841C9.06674 12.5199 9.93326 12.5199 10.4034 13.0841C11.3848 14.2617 11.6304 15.8871 11.0408 17.3021L10.75 18" stroke="#00324A" stroke-width="2"/>
</svg>
