<svg width="20" height="20" viewBox="0 0 20 20" fill="none" xmlns="http://www.w3.org/2000/svg">
<path d="M13 7.35669C13 6.42062 14.2633 6.1725 14.5985 7.04836C15.4093 9.16702 16 11.0623 16 12.087C16 15.3527 13.3137 18 10 18C6.68629 18 4 15.3527 4 12.087C4 10.9861 4.68187 8.88032 5.58587 6.57226C6.75691 3.58242 7.34243 2.0875 8.06521 2.00698C8.29648 1.98121 8.54879 2.02754 8.75513 2.13365C9.4 2.46526 9.4 4.09574 9.4 7.35669C9.4 8.33639 10.2059 9.13059 11.2 9.13059C12.1941 9.13059 13 8.33639 13 7.35669Z" stroke="#00324A" stroke-width="2"/>
<path d="M8.80007 17.9995L8.49762 17.2544C7.94397 15.8903 8.17639 14.3331 9.10419 13.1902C9.56598 12.6213 10.4342 12.6213 10.8959 13.1902C11.8237 14.3331 12.0562 15.8903 11.5025 17.2544L11.2001 17.9995" stroke="#00324A" stroke-width="2"/>
</svg>
