<svg width="19" height="19" viewBox="0 0 19 19" fill="none" xmlns="http://www.w3.org/2000/svg">
<path d="M17.7808 13.5929L16.7754 8.29669C16.6355 7.55621 16.2682 6.87774 15.7248 6.35561C15.1814 5.83349 14.4888 5.49365 13.7433 5.38336C14.3073 6.13901 14.6548 7.03393 14.7488 7.97211L15.1129 11.5742C15.1659 12.0717 15.1167 12.5748 14.9683 13.0527C14.8199 13.5305 14.5755 13.973 14.25 14.3529C14.355 14.8243 14.6429 15.2347 15.0505 15.4937C15.458 15.7528 15.9518 15.8394 16.4231 15.7344C16.8945 15.6294 17.3049 15.3415 17.5639 14.934C17.823 14.5264 17.9096 14.0326 17.8046 13.5613L17.7808 13.5929Z" stroke="#00324A" stroke-width="1.7" stroke-linecap="round" stroke-linejoin="round"/>
<path d="M3.8871 11.5742L4.25126 7.97211C4.34519 7.03392 4.69276 6.13901 5.25668 5.38336C4.5112 5.49365 3.81861 5.83349 3.2752 6.35561C2.73179 6.87774 2.36457 7.55621 2.2246 8.29669L1.21918 13.5929C1.1142 14.0643 1.20077 14.5581 1.45984 14.9656C1.71892 15.3732 2.12927 15.6611 2.60064 15.7661C3.07201 15.8711 3.56577 15.7845 3.97331 15.5254C4.38085 15.2663 4.66878 14.856 4.77376 14.3846C4.43996 14.0028 4.18884 13.5559 4.03624 13.0722C3.88364 12.5885 3.83286 12.0785 3.8871 11.5742Z" stroke="#00324A" stroke-width="1.7" stroke-linecap="round" stroke-linejoin="round"/>
<path d="M11.4158 15.6275H7.58416C7.06717 15.6299 6.55542 15.5238 6.08195 15.3162C5.60849 15.1085 5.18385 14.8039 4.83544 14.4219C4.48704 14.0399 4.22262 13.5891 4.05927 13.0986C3.89592 12.6081 3.83726 12.0888 3.88708 11.5742L4.25125 7.97207C4.37744 6.66887 4.98543 5.45967 5.95621 4.58112C6.927 3.70258 8.19071 3.21795 9.5 3.22207C10.8093 3.21795 12.073 3.70258 13.0438 4.58112C14.0146 5.45967 14.6226 6.66887 14.7487 7.97207L15.1129 11.5742C15.1627 12.0888 15.1041 12.6081 14.9407 13.0986C14.7774 13.5891 14.513 14.0399 14.1646 14.4219C13.8161 14.8039 13.3915 15.1085 12.918 15.3162C12.4446 15.5238 11.9328 15.6299 11.4158 15.6275Z" stroke="#00324A" stroke-width="1.7" stroke-linecap="round" stroke-linejoin="round"/>
<path d="M9.5 12.7775L8.36792 11.5029C8.36792 11.2404 8.47218 10.9887 8.65776 10.8031C8.84335 10.6176 9.09505 10.5133 9.3575 10.5133H9.6425C9.90496 10.5133 10.1567 10.6176 10.3422 10.8031C10.5278 10.9887 10.6321 11.2404 10.6321 11.5029L9.5 12.7775Z" stroke="#00324A" stroke-width="1.7" stroke-linecap="round" stroke-linejoin="round"/>
<path d="M9.5 12.7775V15.6275" stroke="#00324A" stroke-width="2" stroke-linecap="round" stroke-linejoin="round"/>
<path d="M7.00626 8.02753V8.69253" stroke="#00324A" stroke-width="1.7" stroke-linecap="round" stroke-linejoin="round"/>
<path d="M11.9937 8.02753V8.69253" stroke="#00324A" stroke-width="1.7" stroke-linecap="round" stroke-linejoin="round"/>
</svg>
