<svg width="19" height="19" viewBox="0 0 19 19" fill="none" xmlns="http://www.w3.org/2000/svg">
<g clip-path="url(#clip0_2524_1693)">
<g clip-path="url(#clip1_2524_1693)">
<path d="M14.2497 1.58337C3.71542 3.76293 0.848348 11.2763 1.36558 16.4753C1.44423 17.2658 2.14606 17.8125 2.94053 17.8125C3.92218 17.8125 4.69497 16.986 4.66731 16.0048C4.65426 15.5421 4.6494 15.0888 4.65588 14.6442M14.2497 1.58337C9.31994 4.04833 6.84181 6.51329 5.65371 9.25483M14.2497 1.58337L14.25 5.93745M5.65371 9.25483C5.37047 9.15716 5.06643 9.10412 4.75 9.10412C3.21971 9.10412 1.97917 10.3447 1.97917 11.875C1.97917 13.3737 3.16917 14.5946 4.65588 14.6442M5.65371 9.25483C6.74028 9.62953 7.52084 10.6611 7.52084 11.875C7.52084 13.4052 6.28029 14.6458 4.75 14.6458C4.7185 14.6458 4.68713 14.6453 4.65588 14.6442M14.25 14.6458C14.25 14.6458 17.4167 13.1944 17.4167 10.2916C17.4167 7.38884 14.25 5.93745 14.25 5.93745M14.25 14.6458C14.25 14.6458 11.0833 13.1944 11.0833 10.2916C11.0833 7.38884 14.25 5.93745 14.25 5.93745M14.25 14.6458C14.25 14.6458 15.6354 16.1302 17.0208 16.427C17.0208 16.427 15.9818 17.0208 14.25 17.0208C12.5182 17.0208 11.4792 16.427 11.4792 16.427C12.8646 16.1302 14.25 14.6458 14.25 14.6458ZM16.8773 8.31275C15.2907 9.3683 13.2093 9.3683 11.6227 8.31275M4.35417 11.875C4.35417 12.0936 4.53139 12.2708 4.75 12.2708C4.96862 12.2708 5.14584 12.0936 5.14584 11.875M4.35417 11.875C4.35417 11.6563 4.53139 11.4791 4.75 11.4791C4.96862 11.4791 5.14584 11.6563 5.14584 11.875M4.35417 11.875H5.14584" stroke="#00324A" stroke-width="1.5" stroke-linecap="round" stroke-linejoin="round"/>
</g>
</g>
<defs>
<clipPath id="clip0_2524_1693">
<rect width="19" height="19" fill="white"/>
</clipPath>
<clipPath id="clip1_2524_1693">
<rect width="19" height="19" fill="white"/>
</clipPath>
</defs>
</svg>
