<svg width="18" height="18" viewBox="0 0 18 18" fill="none" xmlns="http://www.w3.org/2000/svg">
<path d="M9 15L3.6797 8.34963C3.34718 7.93398 3.18092 7.72615 3.13625 7.4757C3.09159 7.22524 3.17575 6.97276 3.34407 6.46778L3.5883 5.73509C4.02832 4.41505 4.24832 3.75503 4.7721 3.37752C5.29587 3 5.99159 3 7.38304 3H10.617C12.0084 3 12.7041 3 13.2279 3.37752C13.7517 3.75503 13.9717 4.41505 14.4117 5.73509L14.6559 6.46778C14.8243 6.97276 14.9084 7.22524 14.8637 7.4757C14.8191 7.72615 14.6528 7.93398 14.3203 8.34963L9 15ZM9 15L11.625 6.75M9 15L6.375 6.75M14.625 7.5L11.625 6.75M11.625 6.75L10.5 3.75M11.625 6.75H6.375M7.5 3.75L6.375 6.75M6.375 6.75L3.375 7.5" stroke="#00324A" stroke-width="2" stroke-linecap="round"/>
</svg>
