<svg width="18" height="18" viewBox="0 0 18 18" fill="none" xmlns="http://www.w3.org/2000/svg">
<path d="M15.3845 12.9375C16.0918 11.7931 16.5 10.4442 16.5 9C16.5 4.85786 13.1421 1.5 9 1.5C4.85786 1.5 1.5 4.85786 1.5 9C1.5 10.4442 1.90819 11.7931 2.6155 12.9375H4.52138C4.63535 12.0795 5.19673 11.3347 6.01049 10.9956C6.72838 10.6965 7.47994 10.5096 8.23987 10.435C8.11485 9.69682 8.11125 9.02738 8.26553 8.38433C8.42115 7.73595 8.7285 7.15094 9.17453 6.57328C8.92898 6.54 8.6553 6.52374 8.3685 6.53829C7.68915 6.57275 6.97042 6.77743 6.36874 7.29973C6.13414 7.50337 5.77886 7.47829 5.57521 7.24369C5.37157 7.00909 5.39666 6.65381 5.63126 6.45016C6.46957 5.72246 7.45087 5.45839 8.3115 5.41474C8.652 5.39746 8.97907 5.41427 9.279 5.45236C9.19357 5.33267 9.0909 5.21289 8.9685 5.09852C8.52578 4.68493 7.79265 4.3125 6.6 4.3125C6.28934 4.3125 6.0375 4.06066 6.0375 3.75C6.0375 3.43934 6.28934 3.1875 6.6 3.1875C8.04735 3.1875 9.0642 3.64839 9.7365 4.27644C10.1281 4.64228 10.3922 5.05517 10.5557 5.44371C11.4163 5.0878 12.7019 4.85258 13.8601 5.81783C14.0988 6.01671 14.131 6.37141 13.9322 6.61006C13.7333 6.84871 13.3786 6.88095 13.1399 6.68207C12.5452 6.18655 11.869 6.19422 11.2836 6.37324C11.4997 6.575 11.7158 6.81085 11.908 7.07617C12.3535 7.69095 12.707 8.517 12.5555 9.46387C12.5063 9.77062 12.2179 9.9795 11.9111 9.93045C11.6044 9.88132 11.3955 9.59288 11.4446 9.28613C11.5331 8.73293 11.3365 8.20485 10.997 7.73625C10.7801 7.43701 10.5196 7.18372 10.2829 6.99386C9.7755 7.58437 9.48945 8.10517 9.35947 8.6469C9.24 9.14467 9.24195 9.70268 9.37815 10.4069C10.2677 10.4503 11.1515 10.6465 11.9895 10.9956C12.8033 11.3347 13.3646 12.0795 13.4786 12.9375H15.3845Z" fill="#00324A"/>
<path d="M3.46631 14.0625C4.83755 15.5606 6.80907 16.5 9 16.5C11.1909 16.5 13.1624 15.5606 14.5337 14.0625H3.46631Z" fill="#00324A"/>
</svg>
