<svg width="20" height="20" viewBox="0 0 20 20" fill="none" xmlns="http://www.w3.org/2000/svg">
<g clip-path="url(#clip0_2608_1291)">
<path d="M14.9998 8.33337V5.83337C14.9998 4.45004 13.8832 3.33337 12.4998 3.33337C11.1165 3.33337 9.99984 4.45004 9.99984 5.83337H11.6665C11.6665 5.37504 12.0415 5.00004 12.4998 5.00004C12.9582 5.00004 13.3332 5.37504 13.3332 5.83337V8.33337H6.6665C7.58317 8.33337 8.33317 7.58337 8.33317 6.66671V3.33337H3.33317V6.66671C3.33317 7.58337 4.08317 8.33337 4.99984 8.33337H1.6665V10H3.33317V16.6667H16.6665V10H18.3332V8.33337H14.9998ZM10.8332 15H9.1665V10H10.8332V15Z" fill="#00324A"/>
</g>
<defs>
<clipPath id="clip0_2608_1291">
<rect width="20" height="20" fill="white"/>
</clipPath>
</defs>
</svg>
