<svg width="18" height="19" viewBox="0 0 18 19" fill="none" xmlns="http://www.w3.org/2000/svg">
<path d="M16.845 13.3775L15.8925 8.35998C15.7599 7.65846 15.412 7.0157 14.8972 6.52106C14.3824 6.02641 13.7263 5.70446 13.02 5.59998C13.5543 6.31585 13.8835 7.16367 13.9725 8.05248L14.3175 11.465C14.3677 11.9363 14.3211 12.4129 14.1805 12.8656C14.04 13.3183 13.8084 13.7375 13.5 14.0975C13.5995 14.544 13.8723 14.9328 14.2583 15.1782C14.6444 15.4237 15.1122 15.5057 15.5588 15.4062C16.0053 15.3068 16.3941 15.034 16.6395 14.6479C16.885 14.2618 16.967 13.794 16.8675 13.3475L16.845 13.3775Z" stroke="#00324A" stroke-width="1.7" stroke-linecap="round" stroke-linejoin="round"/>
<path d="M3.68253 11.465L4.02753 8.05248C4.11651 7.16367 4.44578 6.31585 4.98003 5.59998C4.27378 5.70446 3.61764 6.02641 3.10283 6.52106C2.58803 7.0157 2.24013 7.65846 2.10753 8.35997L1.15503 13.3775C1.05557 13.824 1.13759 14.2918 1.38302 14.6779C1.62846 15.064 2.01722 15.3368 2.46378 15.4362C2.91034 15.5357 3.37812 15.4537 3.76421 15.2082C4.1503 14.9628 4.42307 14.574 4.52253 14.1275C4.20629 13.7657 3.96839 13.3424 3.82382 12.8842C3.67926 12.4259 3.63115 11.9427 3.68253 11.465Z" stroke="#00324A" stroke-width="1.7" stroke-linecap="round" stroke-linejoin="round"/>
<path d="M10.8148 15.305H7.18482C6.69503 15.3073 6.21021 15.2068 5.76167 15.0101C5.31313 14.8134 4.91083 14.5247 4.58077 14.1629C4.2507 13.801 4.0002 13.3739 3.84544 12.9092C3.69069 12.4445 3.63512 11.9525 3.68232 11.465L4.02732 8.05251C4.14687 6.8179 4.72285 5.67234 5.64255 4.84004C6.56224 4.00774 7.75944 3.54861 8.99982 3.55251C10.2402 3.54861 11.4374 4.00774 12.3571 4.84004C13.2768 5.67234 13.8528 6.8179 13.9723 8.05251L14.3173 11.465C14.3645 11.9525 14.3089 12.4445 14.1542 12.9092C13.9994 13.3739 13.7489 13.801 13.4189 14.1629C13.0888 14.5247 12.6865 14.8134 12.238 15.0101C11.7894 15.2068 11.3046 15.3073 10.8148 15.305Z" stroke="#00324A" stroke-width="1.7" stroke-linecap="round" stroke-linejoin="round"/>
<path d="M9.00023 12.605L7.92773 11.3975C7.92773 11.1488 8.02651 10.9104 8.20232 10.7345C8.37814 10.5587 8.61659 10.46 8.86523 10.46H9.13524C9.38388 10.46 9.62233 10.5587 9.79815 10.7345C9.97396 10.9104 10.0727 11.1488 10.0727 11.3975L9.00023 12.605Z" stroke="#00324A" stroke-width="1.7" stroke-linecap="round" stroke-linejoin="round"/>
<path d="M9 12.605V15.305" stroke="#00324A" stroke-width="2" stroke-linecap="round" stroke-linejoin="round"/>
<path d="M6.6377 8.10498V8.73498" stroke="#00324A" stroke-width="1.7" stroke-linecap="round" stroke-linejoin="round"/>
<path d="M11.3623 8.10498V8.73498" stroke="#00324A" stroke-width="1.7" stroke-linecap="round" stroke-linejoin="round"/>
</svg>
