<svg width="20" height="20" viewBox="0 0 20 20" fill="none" xmlns="http://www.w3.org/2000/svg">
<path d="M3.78793 4.01493C3.96982 3.28737 4.06077 2.92359 4.33203 2.71179C4.60329 2.5 4.97827 2.5 5.72822 2.5H14.2718C15.0217 2.5 15.3967 2.5 15.668 2.71179C15.9392 2.92359 16.0302 3.28737 16.2121 4.01493L17.152 7.77448C17.1857 7.90964 17.2026 7.97722 17.21 8.03145C17.2861 8.58886 16.8876 9.0993 16.3283 9.16069C16.2739 9.16667 16.2004 9.16667 16.0534 9.16667C15.876 9.16667 15.7873 9.16667 15.7139 9.16125C14.8484 9.09745 14.1229 8.48281 13.9176 7.63963C13.9002 7.56809 13.8865 7.48555 13.859 7.32047C13.8513 7.27431 13.8474 7.25123 13.8452 7.24421C13.8153 7.15185 13.6847 7.15185 13.6548 7.24421C13.6526 7.25123 13.6487 7.27431 13.641 7.32047L13.5731 7.72818C13.4347 8.55826 12.7165 9.16667 11.875 9.16667C11.0335 9.16667 10.3153 8.55826 10.1769 7.72818L10.109 7.32047C10.1013 7.27431 10.0974 7.25123 10.0952 7.24421C10.0653 7.15185 9.93466 7.15185 9.90484 7.24421C9.90257 7.25123 9.89873 7.27431 9.89103 7.32047L9.82308 7.72818C9.68473 8.55826 8.96654 9.16667 8.125 9.16667C7.28346 9.16667 6.56527 8.55826 6.42692 7.72818L6.35897 7.32047C6.35127 7.27431 6.34743 7.25123 6.34516 7.24421C6.31534 7.15185 6.18466 7.15185 6.15484 7.24421C6.15257 7.25123 6.14873 7.27431 6.14103 7.32047C6.11352 7.48555 6.09976 7.56809 6.08235 7.63963C5.87714 8.48281 5.15158 9.09745 4.28613 9.16125C4.2127 9.16667 4.124 9.16667 3.94659 9.16667C3.79956 9.16667 3.72605 9.16667 3.67165 9.16069C3.11243 9.0993 2.71389 8.58886 2.78996 8.03145C2.79736 7.97722 2.81426 7.90964 2.84805 7.77448L3.78793 4.01493Z" fill="#00324A"/>
<path d="M13.8203 10.009C14.3319 10.3765 14.9442 10.6089 15.6035 10.6575C15.6682 10.6622 15.7359 10.664 15.8047 10.6653C15.8304 11.1213 15.833 11.6687 15.833 12.3333V16.3333C15.833 17.2759 15.8329 17.7474 15.54 18.0403C15.2471 18.3331 14.7757 18.3333 13.833 18.3333H11.666V15.1672C11.666 14.615 11.2183 14.1672 10.666 14.1672H9.33301L9.23047 14.1721C8.72652 14.2236 8.33301 14.6497 8.33301 15.1672V18.3333H6.16699C5.22429 18.3333 4.75286 18.3331 4.45996 18.0403C4.16709 17.7474 4.16699 17.2759 4.16699 16.3333V12.3333C4.16699 11.6688 4.16866 11.1213 4.19434 10.6653C4.26342 10.664 4.33154 10.6623 4.39648 10.6575C5.05552 10.6089 5.66725 10.3762 6.17871 10.009C6.72303 10.4224 7.39867 10.6672 8.125 10.6672C8.8195 10.6672 9.46856 10.4445 10 10.0637C10.5314 10.4445 11.1805 10.6672 11.875 10.6672C12.6011 10.6672 13.2761 10.4221 13.8203 10.009Z" fill="#00324A"/>
</svg>
