<svg width="20" height="20" viewBox="0 0 20 20" fill="none" xmlns="http://www.w3.org/2000/svg">
<g clip-path="url(#clip0_2608_1279)">
<path d="M17.1415 12.3834L18.3332 11.1917L17.1415 10L14.1665 12.975L7.02484 5.83335L9.99984 2.85835L8.80817 1.66669L7.6165 2.85835L6.42484 1.66669L4.6415 3.45002L3.44984 2.25835L2.25817 3.45002L3.44984 4.64169L1.6665 6.42502L2.85817 7.61669L1.6665 8.80835L2.85817 10L5.83317 7.02502L12.9748 14.1667L9.99984 17.1417L11.1915 18.3334L12.3832 17.1417L13.5748 18.3334L15.3582 16.55L16.5498 17.7417L17.7415 16.55L16.5498 15.3584L18.3332 13.575L17.1415 12.3834Z" fill="#00324A"/>
</g>
<defs>
<clipPath id="clip0_2608_1279">
<rect width="20" height="20" fill="white"/>
</clipPath>
</defs>
</svg>
