<svg width="20" height="20" viewBox="0 0 20 20" fill="none" xmlns="http://www.w3.org/2000/svg">
<g clip-path="url(#clip0_2608_1253)">
<path d="M1.6665 15.8333H18.3332L16.6665 17.5H3.33317L1.6665 15.8333ZM4.1665 5H4.99984V5.83333H4.1665V5ZM4.1665 3.33333H4.99984V4.16667H4.1665V3.33333ZM7.49984 3.33333V4.16667H5.83317V3.33333H7.49984ZM7.49984 5.83333H5.83317V5H7.49984V5.83333ZM4.99984 12.6917C4.69984 12.7833 4.42484 12.925 4.1665 13.0833V6.66667H4.99984V12.6917ZM3.33317 13.7667C3.0165 14.1333 2.7665 14.5417 2.63317 15H16.6498C16.6582 14.8667 16.6748 14.725 16.6748 14.5833C16.6748 12.05 14.6248 10 12.0915 10C10.1832 10 8.54984 11.1667 7.85817 12.8333C7.3665 12.625 6.82484 12.5 6.24984 12.5C6.10817 12.5 5.97484 12.5167 5.83317 12.5333V6.66667H7.49984C8.35817 6.71667 9.08317 5.86667 9.1665 5H17.4998V4.16667H9.1665C9.08317 3.29167 8.35817 2.525 7.49984 2.5H2.49984V3.33333H3.33317V4.16667H2.49984V5H3.33317V5.83333H2.49984V6.66667H3.33317V13.7667Z" fill="white"/>
</g>
<defs>
<clipPath id="clip0_2608_1253">
<rect width="20" height="20" fill="white"/>
</clipPath>
</defs>
</svg>
