<svg width="20" height="20" viewBox="0 0 20 20" fill="none" xmlns="http://www.w3.org/2000/svg">
<path fill-rule="evenodd" clip-rule="evenodd" d="M2.24895 5.29289C1.95605 5.58579 1.95605 6.05719 1.95605 7V14C1.95605 14.9428 1.95605 15.4142 2.24895 15.7071C2.54184 16 3.01325 16 3.95605 16H13.0731C14.1042 16 14.6198 16 15.0571 15.7698C15.4944 15.5397 15.7864 15.1147 16.3702 14.2647L17.4005 12.7647C18.1533 11.6687 18.5297 11.1207 18.5297 10.5C18.5297 9.87929 18.1533 9.33129 17.4005 8.2353L16.3702 6.7353C15.7864 5.88531 15.4944 5.46031 15.0571 5.23016C14.6198 5 14.1042 5 13.0731 5H3.95605C3.01325 5 2.54184 5 2.24895 5.29289ZM13.3043 12.3334C14.3448 12.3334 15.1883 11.5126 15.1883 10.5C15.1883 9.48752 14.3448 8.66671 13.3043 8.66671C12.2638 8.66671 11.4203 9.48752 11.4203 10.5C11.4203 11.5126 12.2638 12.3334 13.3043 12.3334Z" fill="white"/>
</svg>
