<svg width="18" height="18" viewBox="0 0 18 18" fill="none" xmlns="http://www.w3.org/2000/svg">
<g clip-path="url(#clip0_2527_2126)">
<path d="M16.5 15.75C15.6675 15.75 15.2025 15.4725 14.865 15.27C14.5875 15.105 14.415 15 14.0025 15C13.5825 15 13.4175 15.0975 13.14 15.27C12.795 15.4725 12.3375 15.75 11.505 15.75C10.6725 15.75 10.2075 15.4725 9.87 15.27C9.5925 15.105 9.42 15 9.0075 15C8.5875 15 8.4225 15.0975 8.145 15.27C7.8 15.4725 7.335 15.75 6.5025 15.75C5.67 15.75 5.205 15.4725 4.8675 15.27C4.59 15.0975 4.4175 15 4.005 15C3.5925 15 3.42 15.0975 3.1425 15.27C2.7975 15.4725 2.3325 15.75 1.5 15.75V14.25C1.92 14.25 2.085 14.1525 2.3625 13.98C2.7075 13.7775 3.1725 13.5 4.005 13.5C4.8375 13.5 5.3025 13.7775 5.64 13.98C5.9175 14.1525 6.0825 14.25 6.5025 14.25C6.9225 14.25 7.0875 14.1525 7.365 13.98C7.71 13.7775 8.175 13.5 9.0075 13.5C9.84 13.5 10.305 13.7775 10.6425 13.98C10.92 14.145 11.0925 14.25 11.505 14.25C11.9175 14.25 12.09 14.1525 12.3675 13.98C12.705 13.7775 13.17 13.5 14.0025 13.5C14.835 13.5 15.3 13.7775 15.6375 13.98C15.915 14.1525 16.08 14.25 16.5 14.25V15.75ZM16.5 12.375C15.6675 12.375 15.2025 12.0975 14.865 11.895C14.5875 11.73 14.415 11.625 14.0025 11.625C13.5825 11.625 13.4175 11.7225 13.14 11.895C12.8025 12.0975 12.3375 12.375 11.505 12.375C10.6725 12.375 10.2075 12.0975 9.87 11.895C9.5925 11.73 9.42 11.625 9.0075 11.625C8.5875 11.625 8.4225 11.7225 8.145 11.895C7.8075 12.0975 7.3425 12.375 6.51 12.375C5.6775 12.375 5.2125 12.0975 4.875 11.895C4.5975 11.73 4.425 11.625 4.0125 11.625C3.6 11.625 3.4275 11.7225 3.15 11.895C2.7975 12.0975 2.3325 12.375 1.5 12.375V10.875C1.92 10.875 2.085 10.7775 2.3625 10.605C2.7 10.4025 3.165 10.125 3.9975 10.125C4.83 10.125 5.295 10.4025 5.6325 10.605C5.91 10.77 6.0825 10.875 6.495 10.875C6.915 10.875 7.08 10.7775 7.3575 10.605C7.695 10.4025 8.16 10.125 8.9925 10.125C9.825 10.125 10.29 10.4025 10.6275 10.605C10.905 10.77 11.0775 10.875 11.49 10.875C11.9025 10.875 12.075 10.7775 12.3525 10.605C12.69 10.4025 13.155 10.125 13.9875 10.125C14.82 10.125 15.285 10.4025 15.6225 10.605C15.9 10.77 16.0725 10.875 16.485 10.875V12.375H16.5ZM6.5025 9C6.9225 9 7.0875 8.9025 7.365 8.73C7.71 8.5275 8.175 8.25 9.0075 8.25C9.84 8.25 10.305 8.5275 10.6425 8.73C10.92 8.895 11.0925 9 11.505 9C11.9175 9 12.09 8.9025 12.3675 8.73C12.4575 8.6775 12.5625 8.6175 12.675 8.5575L7.86 3.75C6.6975 2.5875 5.625 2.2425 3.75 2.25V4.125C5.115 4.1175 5.9175 4.4175 6.75 5.25L7.5 6L5.0625 8.4375C5.295 8.5275 5.4825 8.64 5.64 8.73C5.9175 8.9025 6.0825 9 6.5025 9Z" fill="white"/>
<path d="M12.375 6C13.4105 6 14.25 5.16053 14.25 4.125C14.25 3.08947 13.4105 2.25 12.375 2.25C11.3395 2.25 10.5 3.08947 10.5 4.125C10.5 5.16053 11.3395 6 12.375 6Z" fill="white"/>
</g>
<defs>
<clipPath id="clip0_2527_2126">
<rect width="18" height="18" fill="white"/>
</clipPath>
</defs>
</svg>
