<svg width="20" height="20" viewBox="0 0 20 20" fill="none" xmlns="http://www.w3.org/2000/svg">
<g clip-path="url(#clip0_2608_1248)">
<path d="M5.83317 6.66671C6.75365 6.66671 7.49984 5.92052 7.49984 5.00004C7.49984 4.07957 6.75365 3.33337 5.83317 3.33337C4.9127 3.33337 4.1665 4.07957 4.1665 5.00004C4.1665 5.92052 4.9127 6.66671 5.83317 6.66671Z" fill="white"/>
<path d="M9.2915 10C9.03317 9.81667 8.79984 9.61667 8.60817 9.4L7.4415 8.10833C7.28317 7.93333 7.08317 7.79167 6.8665 7.69167C6.62484 7.575 6.34984 7.5 6.0665 7.5H6.0415C5.00817 7.5 4.1665 8.34167 4.1665 9.375V10H1.6665V16.6667C1.6665 17.5833 2.4165 18.3333 3.33317 18.3333H16.6665C17.5832 18.3333 18.3332 17.5833 18.3332 16.6667V10H9.2915ZM5.83317 16.6667H4.1665V11.6667H5.83317V16.6667ZM9.1665 16.6667H7.49984V11.6667H9.1665V16.6667ZM12.4998 16.6667H10.8332V11.6667H12.4998V16.6667ZM15.8332 16.6667H14.1665V11.6667H15.8332V16.6667ZM15.5415 4.88333L15.4832 4.825C15.0082 4.30833 14.7998 3.65 14.9248 2.99167L14.9998 2.5H13.4248L13.3748 2.85833C13.2082 3.99167 13.5998 5.11667 14.4582 5.95833L14.5165 6.00833C14.9915 6.525 15.1998 7.18333 15.0748 7.84167L14.9832 8.33333H16.5748L16.6248 7.975C16.7998 6.84167 16.3998 5.71667 15.5415 4.88333V4.88333ZM12.2082 4.88333L12.1498 4.825C11.6748 4.30833 11.4665 3.65 11.5915 2.99167L11.6665 2.5H10.0915L10.0415 2.85833C9.87484 3.99167 10.2665 5.11667 11.1248 5.95833L11.1832 6.00833C11.6582 6.525 11.8665 7.18333 11.7415 7.84167L11.6498 8.33333H13.2415L13.2915 7.975C13.4665 6.84167 13.0665 5.71667 12.2082 4.88333V4.88333Z" fill="white"/>
</g>
<defs>
<clipPath id="clip0_2608_1248">
<rect width="20" height="20" fill="white"/>
</clipPath>
</defs>
</svg>
